File Name

Army Of Darkness 1992 BRRip H264.mp4

File Size
Format : MPEG-4
Format profile : Base Media
Codec ID : isom
File size : 1.46 GiB
Duration : 1h 20mn
Overall bit rate : 2 577 Kbps

Video
ID : 1
Format : AVC
Format/Info : Advanced Video Codec
Format profile : High@L4.1
Format settings, CABAC : Yes
Format settings, ReFrames : 3 frames
Codec ID : avc1
Codec ID/Info : Advanced Video Coding
Duration : 1h 20mn
Bit rate mode : Variable
Bit rate : 1 999 Kbps
Maximum bit rate : 9 748 Kbps
Width : 1 280 pixels
Height : 688 pixels
Display aspect ratio : 1.860
Frame rate mode : Constant
Frame rate : 23.976 fps
Resolution : 24 bits
Colorimetry : 4:2:0
Scan type : Progressive
Bits/(Pixel*Frame) : 0.095
Stream size : 1.13 GiB (77%)

Audio #1
ID : 2
Format : AAC
Format/Info : Advanced Audio Codec
Format version : Version 4
Format profile : LC
Format settings, SBR : No
Codec ID : 40
Duration : 1h 20mn
Bit rate mode : Variable
Bit rate : 128 Kbps
Maximum bit rate : 138 Kbps
Channel(s) : 2 channels
Channel positions : L R
Sampling rate : 48.0 KHz
Resolution : 16 bits
Stream size : 74.1 MiB (5%)

Audio #2
ID : 3
Format : AAC
Format/Info : Advanced Audio Codec
Format version : Version 4
Format profile : LC
Format settings, SBR : No
Codec ID : 40
Duration : 1h 20mn
Bit rate mode : Variable
Bit rate : 448 Kbps
Maximum bit rate : 467 Kbps
Channel(s) : 6 channels
Channel positions : Front: L C R, Rear: L R, LFE
Sampling rate : 48.0 KHz
Resolution : 16 bits
Stream size : 259 MiB (17%)

English SRT : ----

Language : English


 
http://www.imdb.com/title/tt0106308/

Release Date: 19 February 1993 (USA) 

Genre: Comedy | Fantasy | Horror 

Plot: A man is accidentally transported to 1300 A.D., where he must battle an army of the dead and retrieve the Necronomicon so he can return home.

Cast: 
Bruce Campbell ... Ash
Embeth Davidtz ... Sheila
Marcus Gilbert ... Lord Arthur
Ian Abercrombie ... Wiseman
Richard Grove ... Duke Henry the Red
Timothy Patrick Quill ... Blacksmith
Michael Earl Reid ... Gold Tooth
Bridget Fonda ... Linda
Patricia Tallman ... Possessed Witch
Ted Raimi ... Cowardly Warrior / Second Supportive Villager / S-Mart Clerk (as Theodore Raimi)
Deke Anderson ... Mini-Ash #2
Bruce Thomas ... Mini-Ash #3
Sara Shearer ... Old Woman
Shiva Gordon ... Pit Deadite #1
Billy Bryan ... Pit Bitch